<svg xmlns="http://www.w3.org/2000/svg" viewBox="0 0 500 500"><g id="freepik--Cloud--inject-168"><g id="freepik--cloud--inject-168"><path d="M354.32,62.3l-13-7.49h0c-1.74-1.16-4.06-1.15-6.63.33l-.93.54a39.66,39.66,0,0,0,.39-5.5,29.23,29.23,0,0,0-.85-7.26L340,41.29l-12.86-7.43h0c-3.53-2-8.14-1.85-13.18,1.06s-9.89,8.3-13.46,14.63A33.85,33.85,0,0,0,299,40l5.85-2.24-12.43-7.15h0c-4.55-3-10.64-2.95-17.35.92C261,39.68,249.58,61.48,249.58,80.26a39,39,0,0,0,.47,6.21l-1.76,1c-9,5.17-16.22,19-16.22,31h0c0,6.59,2.22,11.29,5.71,13.32h0l13,7.51,2.15-11,18.94-10.94L334.71,81.1c5.34-3.07,9.66-11.29,9.73-18.42L352,66.74Z" style="fill:#199388"></path><path d="M354.32,62.3l-13-7.49h0c-1.74-1.16-4.06-1.15-6.63.33l-.93.54a39.66,39.66,0,0,0,.39-5.5,29.23,29.23,0,0,0-.85-7.26L340,41.29l-12.86-7.43h0c-3.53-2-8.14-1.85-13.18,1.06s-9.89,8.3-13.46,14.63A33.85,33.85,0,0,0,299,40l5.85-2.24-12.43-7.15h0c-4.55-3-10.64-2.95-17.35.92C261,39.68,249.58,61.48,249.58,80.26a39,39,0,0,0,.47,6.21l-1.76,1c-9,5.17-16.22,19-16.22,31h0c0,6.59,2.22,11.29,5.71,13.32h0l13,7.51,2.15-11,18.94-10.94L334.71,81.1c5.34-3.07,9.66-11.29,9.73-18.42L352,66.74Z" style="fill:#fff;opacity:0.1"></path><path d="M327.18,33.86h0c-3.53-2-8.14-1.85-13.18,1.06a30.59,30.59,0,0,0-6.65,5.34l16.59,9.64,9.87-4.48c-.13-.87-.29-1.71-.49-2.5L340,41.29Z" style="fill:#199388"></path><path d="M299.58,42.07c-.17-.71-.36-1.4-.58-2.06L304,38.12l.58-.53-12.11-7h0c-4.55-3-10.64-2.95-17.35.92-6.39,3.69-12.22,10.2-16.7,18l20.16,11.63Z" style="fill:#199388"></path><path d="M250.05,86.47l-5.34,3.62a39.47,39.47,0,0,0-10.56,16.6l15.18,8.76L263,94Z" style="fill:#199388"></path><path d="M327.18,33.86h0c-3.53-2-8.14-1.85-13.18,1.06a30.59,30.59,0,0,0-6.65,5.34l16.59,9.64,9.87-4.48c-.13-.87-.29-1.71-.49-2.5L340,41.29Z" style="fill:#fff;opacity:0.4"></path><path d="M299.58,42.07c-.17-.71-.36-1.4-.58-2.06L304,38.12l.58-.53-12.11-7h0c-4.55-3-10.64-2.95-17.35.92-6.39,3.69-12.22,10.2-16.7,18l20.16,11.63Z" style="fill:#fff;opacity:0.4"></path><path d="M250.05,86.47l-5.34,3.62a39.47,39.47,0,0,0-10.56,16.6l15.18,8.76L263,94Z" style="fill:#fff;opacity:0.4"></path><path d="M347.69,62.65l-.93.54a39.8,39.8,0,0,0,.39-5.51c0-14.85-9-21.68-20.18-15.25-5.17,3-9.88,8.3-13.45,14.62-.5-17.89-11.71-25.95-25.47-18C274,47.17,262.56,69,262.56,87.75A39.21,39.21,0,0,0,263,94l-1.76,1c-9,5.17-16.22,19-16.22,31h0c0,11.95,7.26,17.7,16.22,12.52l23.59-13.61h0L347.69,88.6c5.38-3.1,9.73-11.43,9.73-18.59h0C357.42,62.84,353.07,59.55,347.69,62.65Z" style="fill:#199388"></path><path d="M347.69,62.65l-.93.54a39.8,39.8,0,0,0,.39-5.51c0-14.85-9-21.68-20.18-15.25-5.17,3-9.88,8.3-13.45,14.62-.5-17.89-11.71-25.95-25.47-18C274,47.17,262.56,69,262.56,87.75A39.21,39.21,0,0,0,263,94l-1.76,1c-9,5.17-16.22,19-16.22,31h0c0,11.95,7.26,17.7,16.22,12.52l23.59-13.61h0L347.69,88.6c5.38-3.1,9.73-11.43,9.73-18.59h0C357.42,62.84,353.07,59.55,347.69,62.65Z" style="fill:#fff;opacity:0.6"></path></g></g></svg>