<svg xmlns="http://www.w3.org/2000/svg" viewBox="0 0 500 500"><g id="freepik--background-complete--inject-61"><rect y="382.4" width="500" height="0.25" style="fill:#ebebeb"></rect><rect x="416.78" y="398.49" width="33.12" height="0.25" style="fill:#ebebeb"></rect><rect x="322.53" y="401.21" width="8.69" height="0.25" style="fill:#ebebeb"></rect><rect x="396.59" y="389.21" width="19.19" height="0.25" style="fill:#ebebeb"></rect><rect x="52.46" y="390.89" width="43.19" height="0.25" style="fill:#ebebeb"></rect><rect x="104.56" y="390.89" width="6.33" height="0.25" style="fill:#ebebeb"></rect><rect x="131.47" y="395.11" width="93.68" height="0.25" style="fill:#ebebeb"></rect><path d="M237,337.8H43.91a5.71,5.71,0,0,1-5.7-5.71V60.66A5.71,5.71,0,0,1,43.91,55H237a5.71,5.71,0,0,1,5.71,5.71V332.09A5.71,5.71,0,0,1,237,337.8ZM43.91,55.2a5.46,5.46,0,0,0-5.45,5.46V332.09a5.46,5.46,0,0,0,5.45,5.46H237a5.47,5.47,0,0,0,5.46-5.46V60.66A5.47,5.47,0,0,0,237,55.2Z" style="fill:#ebebeb"></path><path d="M453.31,337.8H260.21a5.72,5.72,0,0,1-5.71-5.71V60.66A5.72,5.72,0,0,1,260.21,55h193.1A5.71,5.71,0,0,1,459,60.66V332.09A5.71,5.71,0,0,1,453.31,337.8ZM260.21,55.2a5.47,5.47,0,0,0-5.46,5.46V332.09a5.47,5.47,0,0,0,5.46,5.46h193.1a5.47,5.47,0,0,0,5.46-5.46V60.66a5.47,5.47,0,0,0-5.46-5.46Z" style="fill:#ebebeb"></path><ellipse cx="211.8" cy="243.53" rx="91.77" ry="114.06" transform="translate(-88.12 124.29) rotate(-27.31)" style="fill:#e0e0e0"></ellipse><ellipse cx="218.2" cy="240.23" rx="74.07" ry="92.06" transform="translate(-85.88 126.86) rotate(-27.3)" style="fill:#fff"></ellipse><path d="M276.45,210.15c18.68,36.19,10.22,77.7-18.89,92.73s-67.86-2.11-86.54-38.3-10.22-77.7,18.89-92.73S257.77,174,276.45,210.15Z" style="fill:#e0e0e0"></path><ellipse cx="227.66" cy="235.34" rx="43.76" ry="56.62" transform="translate(-82.59 130.66) rotate(-27.31)" style="fill:#fff"></ellipse><path d="M259.47,220.84c10.22,19.81,6.65,42-8,49.56s-34.8-2.38-45-22.19-6.65-42,8-49.57S249.24,201,259.47,220.84Z" style="fill:#e0e0e0"></path><path d="M254.34,223.48c7.39,14.31,5.34,30.06-4.58,35.18s-23.94-2.33-31.33-16.64S213.09,212,223,206.84,247,209.17,254.34,223.48Z" style="fill:#fff"></path><polygon points="369.35 138.96 342.7 152.72 340.72 178.89 363.2 192.43 389.85 178.68 366.93 165.36 369.35 138.96" style="fill:#e0e0e0"></polygon><path d="M241.19,235.54a5,5,0,0,1-2.94-9.35l130.48-67.36a5,5,0,0,1,4.56,8.84L242.81,235A5,5,0,0,1,241.19,235.54Z" style="fill:#ebebeb"></path><path d="M391.34,238.19v4.61l2.37.22a12.5,12.5,0,0,0,1.77,4.27L394,249.13l3.26,3.26,1.84-1.52a12.54,12.54,0,0,0,4.26,1.77l.23,2.37h4.61l.23-2.37a12.54,12.54,0,0,0,4.26-1.77l1.84,1.52,3.26-3.26-1.52-1.84A12.31,12.31,0,0,0,418,243l2.38-.22v-4.61L418,238a12.34,12.34,0,0,0-1.77-4.26l1.52-1.84-3.26-3.26-1.84,1.52a12.34,12.34,0,0,0-4.26-1.77l-.23-2.38h-4.61l-.23,2.38a12.34,12.34,0,0,0-4.26,1.77l-1.84-1.52L394,231.86l1.52,1.84a12.54,12.54,0,0,0-1.77,4.26Zm14.52-3.94a6.25,6.25,0,1,1-6.25,6.24A6.24,6.24,0,0,1,405.86,234.25Z" style="fill:#e0e0e0"></path><path d="M383.54,258.83l1.33,1.1,2.34-2.34-1.1-1.33a8.73,8.73,0,0,0,1.28-3.06l1.7-.16v-3.32l-1.7-.16a8.73,8.73,0,0,0-1.28-3.06l1.1-1.32-2.34-2.35-1.33,1.1a8.9,8.9,0,0,0-3.06-1.27l-.16-1.71H377l-.16,1.71a8.9,8.9,0,0,0-3.06,1.27l-1.32-1.1-2.35,2.35,1.1,1.32a8.9,8.9,0,0,0-1.27,3.06l-1.71.16V253l1.71.16a8.9,8.9,0,0,0,1.27,3.06l-1.1,1.33,2.35,2.34,1.32-1.1a8.73,8.73,0,0,0,3.06,1.28l.16,1.7h3.32l.16-1.7A8.73,8.73,0,0,0,383.54,258.83Zm-9.37-7.45a4.49,4.49,0,1,1,4.49,4.49A4.49,4.49,0,0,1,374.17,251.38Z" style="fill:#e0e0e0"></path><path d="M398.27,281.29a10.55,10.55,0,0,0,3.65-1.52l1.58,1.31,2.79-2.79L405,276.71a10.58,10.58,0,0,0,1.52-3.64l2-.2v-3.94l-2-.19a10.55,10.55,0,0,0-1.52-3.65l1.31-1.58-2.79-2.79L401.92,262a10.55,10.55,0,0,0-3.65-1.52l-.19-2h-3.94l-.2,2A10.58,10.58,0,0,0,390.3,262l-1.58-1.31-2.79,2.79,1.31,1.58a10.55,10.55,0,0,0-1.52,3.65l-2,.19v3.94l2,.2a10.58,10.58,0,0,0,1.52,3.64l-1.31,1.58,2.79,2.79,1.58-1.31a10.58,10.58,0,0,0,3.64,1.52l.2,2h3.94Zm-7.5-10.39a5.34,5.34,0,1,1,5.34,5.34A5.34,5.34,0,0,1,390.77,270.9Z" style="fill:#e0e0e0"></path><path d="M91.39,123.58v4.61l2.37.23a12.36,12.36,0,0,0,1.78,4.26L94,134.52l3.26,3.26,1.85-1.52a12.18,12.18,0,0,0,4.26,1.77l.22,2.37h4.61l.23-2.37a12.26,12.26,0,0,0,4.26-1.77l1.84,1.52,3.27-3.26-1.53-1.84a12.34,12.34,0,0,0,1.77-4.26l2.38-.23v-4.61l-2.38-.23a12.34,12.34,0,0,0-1.77-4.26l1.53-1.84L114.54,114l-1.84,1.52a12.26,12.26,0,0,0-4.26-1.77l-.23-2.37H103.6l-.22,2.37a12.18,12.18,0,0,0-4.26,1.77L97.27,114,94,117.25l1.53,1.84a12.36,12.36,0,0,0-1.78,4.26Zm14.52-3.94a6.25,6.25,0,1,1-6.25,6.25A6.24,6.24,0,0,1,105.91,119.64Z" style="fill:#e0e0e0"></path><path d="M108.35,348.19l1.32,1.1,2.35-2.35-1.1-1.32a8.9,8.9,0,0,0,1.27-3.06l1.71-.16v-3.32l-1.71-.16a8.82,8.82,0,0,0-1.27-3.06l1.1-1.33-2.35-2.34-1.32,1.09a8.87,8.87,0,0,0-3.07-1.27l-.16-1.71h-3.31l-.16,1.7a8.82,8.82,0,0,0-3.06,1.27l-1.33-1.09-2.34,2.34L96,335.86a8.82,8.82,0,0,0-1.27,3.06l-1.71.16v3.32l1.71.16A8.9,8.9,0,0,0,96,345.62l-1.09,1.32,2.34,2.35,1.33-1.1a8.82,8.82,0,0,0,3.06,1.27l.16,1.71h3.31l.16-1.71A8.87,8.87,0,0,0,108.35,348.19ZM99,340.74a4.49,4.49,0,1,1,4.49,4.49A4.49,4.49,0,0,1,99,340.74Z" style="fill:#e0e0e0"></path><path d="M404.12,128.09l1.33,1.1,2.34-2.35-1.09-1.32a8.9,8.9,0,0,0,1.27-3.06l1.71-.16V119l-1.71-.16a8.9,8.9,0,0,0-1.27-3.06l1.09-1.33-2.34-2.34-1.33,1.1a8.84,8.84,0,0,0-3.06-1.28l-.16-1.7h-3.31l-.16,1.7a8.89,8.89,0,0,0-3.07,1.28l-1.32-1.1-2.34,2.34,1.09,1.33a8.9,8.9,0,0,0-1.27,3.06l-1.71.16v3.32l1.71.16a8.9,8.9,0,0,0,1.27,3.06l-1.09,1.32,2.34,2.35,1.32-1.1a8.87,8.87,0,0,0,3.07,1.27l.16,1.71h3.31l.16-1.71A8.82,8.82,0,0,0,404.12,128.09Zm-9.36-7.45a4.49,4.49,0,1,1,4.48,4.49A4.49,4.49,0,0,1,394.76,120.64Z" style="fill:#e0e0e0"></path><path d="M88.48,254.35l1.33,1.09,2.34-2.34-1.1-1.33a8.84,8.84,0,0,0,1.28-3.06l1.7-.16v-3.31l-1.7-.16A8.89,8.89,0,0,0,91.05,242l1.1-1.32-2.34-2.35-1.33,1.1a8.9,8.9,0,0,0-3.06-1.27l-.16-1.71H81.94l-.16,1.71a8.9,8.9,0,0,0-3.06,1.27l-1.32-1.1-2.35,2.35,1.1,1.32a8.87,8.87,0,0,0-1.27,3.07l-1.71.16v3.31l1.71.16a8.82,8.82,0,0,0,1.27,3.06l-1.1,1.33,2.35,2.34,1.32-1.09a8.9,8.9,0,0,0,3.06,1.27l.16,1.71h3.32l.16-1.71A8.9,8.9,0,0,0,88.48,254.35Zm-9.37-7.46a4.49,4.49,0,1,1,4.49,4.49A4.49,4.49,0,0,1,79.11,246.89Z" style="fill:#e0e0e0"></path><path d="M267.79,105.45l-1.71.16v3.32l1.71.16a8.67,8.67,0,0,0,1.27,3.07l-1.1,1.32,2.35,2.34,1.32-1.09a8.86,8.86,0,0,0,3.06,1.26l.16,1.71h3.32l.16-1.71a8.91,8.91,0,0,0,3.07-1.26l1.32,1.09,2.34-2.34L284,112.16a8.91,8.91,0,0,0,1.26-3.07l1.71-.16v-3.32l-1.71-.16a8.86,8.86,0,0,0-1.26-3.06l1.09-1.32-2.34-2.35-1.32,1.1a8.74,8.74,0,0,0-3.07-1.27l-.16-1.71h-3.32l-.16,1.71a8.69,8.69,0,0,0-3.06,1.27l-1.32-1.1L268,101.07l1.1,1.32A8.69,8.69,0,0,0,267.79,105.45Zm11.89-1.35a4.49,4.49,0,1,1-6.34,0A4.48,4.48,0,0,1,279.68,104.1Z" style="fill:#e0e0e0"></path><path d="M131,373.35a10.58,10.58,0,0,0,3.64-1.52l1.58,1.31,2.79-2.79-1.31-1.58a10.36,10.36,0,0,0,1.52-3.65l2-.19V361l-2-.2a10.39,10.39,0,0,0-1.52-3.64l1.31-1.58-2.79-2.79-1.58,1.31a10.39,10.39,0,0,0-3.64-1.52l-.19-2h-3.95l-.19,2a10.36,10.36,0,0,0-3.65,1.52l-1.57-1.31-2.8,2.79,1.31,1.58a10.58,10.58,0,0,0-1.52,3.64l-2,.2v3.94l2,.19a10.55,10.55,0,0,0,1.52,3.65l-1.31,1.58,2.8,2.79,1.57-1.31a10.55,10.55,0,0,0,3.65,1.52l.19,2h3.95ZM123.47,363a5.35,5.35,0,1,1,5.34,5.34A5.34,5.34,0,0,1,123.47,363Z" style="fill:#e0e0e0"></path><path d="M285.84,84.53a14,14,0,0,0-2,4.81l-2.68.25v5.19l2.68.26a14,14,0,0,0,2,4.8l-1.71,2.07,3.67,3.67,2.07-1.71a14,14,0,0,0,4.8,2l.26,2.68h5.19l.25-2.68a13.88,13.88,0,0,0,4.8-2l2.07,1.71,3.68-3.67-1.72-2.07a13.63,13.63,0,0,0,2-4.81l2.69-.25V89.59l-2.69-.25a13.63,13.63,0,0,0-2-4.81l1.72-2.06-3.68-3.68-2.07,1.72a13.71,13.71,0,0,0-4.8-2l-.25-2.68h-5.19l-.26,2.68a13.87,13.87,0,0,0-4.8,2l-2.07-1.72-3.67,3.68Zm16.65,2.68a7,7,0,1,1-9.94,0A7,7,0,0,1,302.49,87.21Z" style="fill:#e0e0e0"></path><path d="M324.34,350a13.63,13.63,0,0,0-2,4.81l-2.69.25v5.19l2.69.25a13.63,13.63,0,0,0,2,4.81l-1.72,2.07L326.3,371l2.07-1.71a13.88,13.88,0,0,0,4.8,2l.25,2.68h5.19l.26-2.68a14,14,0,0,0,4.8-2l2.07,1.71,3.67-3.67-1.71-2.07a14,14,0,0,0,2-4.81l2.68-.25V355l-2.68-.25a14,14,0,0,0-2-4.81l1.71-2.06-3.67-3.68-2.07,1.72a13.87,13.87,0,0,0-4.8-2l-.26-2.68h-5.19l-.25,2.68a13.71,13.71,0,0,0-4.8,2l-2.07-1.72-3.68,3.68ZM341,352.64a7,7,0,1,1-9.94,0A7,7,0,0,1,341,352.64Z" style="fill:#e0e0e0"></path></g></svg>
