<svg xmlns="http://www.w3.org/2000/svg" viewBox="0 0 500 500"><g id="freepik--character-1--inject-237"><g id="freepik--character-1--inject-237"><g id="freepik--boy-arm--inject-237"><path d="M144.17,134.64s19.78,12.24,21.54,13.22,5.4,4.47,9.12-.12c3-3.68,23.35-35,23.35-35l-10.8-5.2-19,23.29-28.6-20.36Z" style="fill:#ffa8a7"></path><path d="M144.6,112.32C151,117.37,162,125.53,162,125.53A29.28,29.28,0,0,1,153.64,142l-11.16-6.89-13.85-28.07S135.89,105.48,144.6,112.32Z" style="fill:#37474f"></path></g><g id="freepik--smiley-face--inject-237"><path d="M153.48,184.11c0-33.59,20.42-72.61,45.61-87.16,11.56-6.67,22.37-7.38,30.41-2.58h0l19.29,11.3-5.52,11.42a67.53,67.53,0,0,1,1.43,14.35c0,33.59-20.42,72.61-45.61,87.15a47.51,47.51,0,0,1-5.25,2.62l-5.21,11-19.13-11v0C159.7,215.63,153.48,202.64,153.48,184.11Z" style="fill:#199388"></path><ellipse cx="218.8" cy="168.99" rx="70.17" ry="39.7" transform="translate(-22.36 304.15) rotate(-66.95)" style="fill:#199388"></ellipse><path d="M154,192.81l.15,1.13c.11.79.23,1.57.36,2.32.22,1.26.47,2.47.77,3.64.17.78.38,1.55.62,2.3.11.37.23.74.34,1.1s.25.73.37,1.09c.25.71.52,1.4.79,2.09.14.32.28.65.43,1,.31.7.63,1.38,1,2l.32.61c.53,1,1.1,1.91,1.69,2.79.1.16.2.3.31.45l.22.31a26.16,26.16,0,0,0,5,5.33l.43.34c.27.21.54.4.81.59s.65.44,1,.65.61.37.91.54v0L188.27,232c-7.8-4.84-13.18-14.61-14.72-28.24a74.08,74.08,0,0,1-.46-8.36c0-14.81,4-30.67,10.56-45L164.07,139c-6.61,14.37-10.59,30.25-10.59,45.08a73.07,73.07,0,0,0,.47,8.3h0C154,192.54,154,192.67,154,192.81Z" style="opacity:0.1"></path><path d="M153.94,192.41c.16,1.32.34,2.61.56,3.85s.47,2.47.77,3.64c.19.78.4,1.55.62,2.3.11.37.23.74.34,1.1s.25.73.37,1.09c.25.71.52,1.4.79,2.09.14.32.28.65.43,1,.31.7.63,1.38,1,2l.32.61c.53,1,1.1,1.91,1.69,2.79.17.27.35.52.53.76a26.16,26.16,0,0,0,5,5.33l.43.34c.27.21.54.4.81.59s.65.44,1,.65.61.37.91.54v0L188.27,232c-7.8-4.84-13.18-14.61-14.72-28.24Z" style="opacity:0.1"></path><path d="M164.07,139l19.58,11.31c8.38-18.28,21-34.14,35.15-42.3,11.44-6.61,21.91-7,29.92-2.4L229.5,94.37c-8-4.8-18.85-4.09-30.41,2.59C185,105.08,172.44,120.85,164.07,139Z" style="fill:#fff;opacity:0.4"></path><path d="M206,153.55c0,4.8-2.53,10.16-5.65,12s-5.65-.63-5.65-5.44,2.53-10.15,5.65-12S206,148.75,206,153.55Z" style="fill:#37474f"></path><path d="M241.75,132.9c0,4.8-2.53,10.16-5.65,12s-5.65-.64-5.65-5.44,2.53-10.16,5.65-12S241.75,128.09,241.75,132.9Z" style="fill:#37474f"></path><path d="M208.11,209.78a17.81,17.81,0,0,1-6.81-1.33c-6.42-2.61-11.35-9-13.88-18.12a2.93,2.93,0,1,1,5.64-1.58c2,7.29,5.75,12.36,10.46,14.28,4,1.64,8.8,1,13.82-1.92,12-6.94,22.92-25.09,27.16-45.17a2.93,2.93,0,0,1,5.74,1.21c-4.64,21.95-16.4,41.2-30,49A24.49,24.49,0,0,1,208.11,209.78Z" style="fill:#37474f"></path><path d="M183.87,192.69a8.15,8.15,0,0,1-3.74-.78,2.27,2.27,0,0,1,2.14-4,7.68,7.68,0,0,0,5.26-.51,9.78,9.78,0,0,0,5.64-6.61,2.27,2.27,0,0,1,4.36,1.27,14.2,14.2,0,0,1-13.66,10.64Z" style="fill:#37474f"></path><path d="M242.52,158.9a8.06,8.06,0,0,1-3.75-.79,2.27,2.27,0,0,1,2.14-4,7.68,7.68,0,0,0,5.26-.51,9.74,9.74,0,0,0,5.64-6.61,2.27,2.27,0,0,1,4.36,1.27,14.23,14.23,0,0,1-13.65,10.65Z" style="fill:#37474f"></path></g><g id="freepik--character-boy--inject-237"><path d="M89.55,377.23c-.36,1.41-1.11,5.42-8.57,5.42s-11.73-3-13.2-6.84-.63-6.6-.49-9.9-2.32-5.41-2.86-7.2c-.8-2.63,1.39-6.25,1.39-6.25Z" style="fill:#263238"></path><path d="M161.27,352.87a4.44,4.44,0,0,1-.35,3.59c-.54.73-5.54,4.37-11.72,3.61a28.62,28.62,0,0,1-12.72-4.44c-3.61-2.13-6.1-2.44-9.77-2.43s-6.19-.68-6.49-1.6c-.54-1.62-.58-2.66.2-2.64Z" style="fill:#263238"></path><path d="M68.43,346.71C68.3,350.55,80,353.88,79.75,349l4-14.17-13.12-1.39Z" style="fill:#ffa8a7"></path><path d="M123,337.7c3.69,2.64,7.09,3,11.42.8l2.18-23.2H120.69Z" style="fill:#ffa8a7"></path><path d="M88.85,183.71c-3,28-8.48,84.52-8.48,84.52s-4.8,7.32-6.59,20.82c-2.2,16.68-4.39,51.48-4.39,51.48a15.41,15.41,0,0,0,13,1.33s18.71-51.09,22.17-67.5c3-14.33,8.37-43.75,8.37-43.75l6.69,40a62.48,62.48,0,0,0-2.16,19.51c.32,7.71,3.94,36.89,3.94,36.89,1.08,3.19,11.09,3,14.31.91,0,0,5.12-49,5.8-57.15.89-10.66,2.54-87.1,2.54-87.1Z" style="fill:#37474f"></path><path d="M112.91,230.61l3.73-17.22s8.35-1.9,14.31-6.68c0,0-2.18,5.49-11.33,9.69l-3.81,16.13,3.28,35.38Z" style="fill:#263238"></path><path d="M79.75,349l.43-1.48c.49.49.41.91.42,2.23,0,1.05,0,2.06.14,3.45a31.63,31.63,0,0,0,1,5.37c1,4.09,2.05,5.73,4.92,10.78.68,1.19,2.33,3.18,2.82,4.48s.63,3.65-.9,4.55c-4.36,2.58-11.09,1.88-15.36-.13a9.15,9.15,0,0,1-5.37-8.31c0-1,.22-2.07.26-3.11A14.74,14.74,0,0,0,66.35,360a19.49,19.49,0,0,1-1.58-3.82c-.57-2.42.56-4.85,1.51-7,.81-1.87,1.76-4.37,2.4-4.08,0,.24-.25,1.64-.25,1.64.66,1,2.74,2.24,5.23,2.72C75.26,349.75,79.58,350.23,79.75,349Z" style="fill:#455a64"></path><path d="M134.89,333.66c.57,0,1.15.45,2.16,1.92a17.68,17.68,0,0,0,5.27,5.06c3.76,2.64,9.69,5.31,15.79,7.59,3.32,1.24,3.95,3.64,2.85,5.79-1.72,1.72-7.58,5.74-17.21,2.81-6-1.82-8.07-4.89-12.34-5.43-3-.38-8.26.44-11.34-2-1-2.33-.19-4.67.12-7.91s1.34-8.41,2.37-8.21l.18,1.72c.82,3.74,9.43,4.11,11.87,1.66Z" style="fill:#455a64"></path><path d="M110.3,106c-8.18,0-14.11.45-19.4,1.59-4.14.88-5.45,7.83-5.72,12.46C84.29,135.05,91,163,91,163L87.87,189c7,7.5,38.38,11.41,56.3.42,0,0,.48-51.15,0-59.77-.84-15.17-7.35-22.44-12.94-22.87C131.23,106.75,118.48,106,110.3,106Z" style="fill:#199388"></path><path d="M102.83,59.91s-4.29.59-5.86,3.82c-1.37,2.81-.88,9.6,1,17s3.54,11.85,4.61,13.9a5.66,5.66,0,0,0,3.27,2.62l-.21-8.78-.32-6.11s3.92-5.36,4.35-9.75c.56-5.65-.63-8-.63-8Z" style="fill:#37474f"></path><path d="M109.75,68.4A16.38,16.38,0,1,0,126.08,52,16.38,16.38,0,0,0,109.75,68.4Z" style="fill:#37474f"></path><path d="M105.5,81.38c-1.48,1.27-2.67-2-3.92-3.32s-5.28-3-7.28,1.2,1.85,10.21,4.87,11.62c4.43,2.05,6.42-2.42,6.42-2.42l.47,18.46c7.57,11.47,25.17,9.14,17.83.72l0-6s5,.73,7.38.35c4-.63,6.13-3.67,7.34-8,1.94-7,1.89-17.67-.8-31.28-4.51-3.48-19.32-4-28.78,2C109.68,76.71,107,80.1,105.5,81.38Z" style="fill:#ffa8a7"></path><path d="M140.85,51.91a.75.75,0,0,0-.59-.45.91.91,0,0,0-.55.24,26.26,26.26,0,0,1-3.59,2.41,12.77,12.77,0,0,0,.06-4.89c-.17-1-.45-3.29-1.68-3.54-.73-.14-1.37.47-1.92,1-4.92,4.61-11.35,2.47-17.28,2.66-5,.16-10.94,2.18-13.18,7-1,2.21-1.2,4.53.82,6.06a14.08,14.08,0,0,0,6,2.26c9.88,1.72,23.18,5.1,30.49-4.11a8.66,8.66,0,0,0,2-4.56,7.27,7.27,0,0,0-.6-4A.14.14,0,0,0,140.85,51.91Z" style="fill:#263238"></path><path d="M123.85,101.63s-9-1.79-12.15-3.45a10.34,10.34,0,0,1-4.35-4.28A14.07,14.07,0,0,0,109.83,99c2.31,2.93,14,5.06,14,5.06Z" style="fill:#f28f8f"></path><path d="M121.52,79.21a1.81,1.81,0,1,1-1.81-1.87A1.83,1.83,0,0,1,121.52,79.21Z" style="fill:#263238"></path><path d="M119.59,72.41l-3.85,2.14a2.31,2.31,0,0,1,.89-3.07A2.16,2.16,0,0,1,119.59,72.41Z" style="fill:#263238"></path><path d="M120.56,88.91l9.2,3.41a4.81,4.81,0,0,1-6.23,3.07A5.14,5.14,0,0,1,120.56,88.91Z" style="fill:#b16668"></path><path d="M137.57,73.85,134,71.16a2.14,2.14,0,0,1,3.06-.48A2.33,2.33,0,0,1,137.57,73.85Z" style="fill:#263238"></path><path d="M136.5,78.65a1.8,1.8,0,1,1-1.81-1.87A1.83,1.83,0,0,1,136.5,78.65Z" style="fill:#263238"></path><polygon points="127.32 76.97 127.94 87.8 133.59 85.86 127.32 76.97" style="fill:#f28f8f"></polygon><path d="M123.53,95.39a4.7,4.7,0,0,0,2.64.18,4.16,4.16,0,0,0-5.74-3.7A5,5,0,0,0,123.53,95.39Z" style="fill:#f28f8f"></path><path d="M99.52,179.74c-4.42-1.49-6.16-2.36-8.27-9.05-5.62-17.79-10.7-32.46-11.78-41.38-2.08-17.25,4.85-18.82,10.08-20.7l7.2,17.49,10.6,38.13c8.52,3.83,22.47,6.66,32.45,9.76a25.94,25.94,0,0,0,6.69.65c3.48-.34,5.62-.75,7.56-.41-.19,1.43-.27,2.78-.37,4.05a57.5,57.5,0,0,0,10.15-.93c7.26-1.35,9.86,1.06,3.9,8.35-3.37,4.13-10,5.72-19.64,4.7a96.63,96.63,0,0,1-14.77-3.09C120.7,183.92,106.47,182.07,99.52,179.74Z" style="fill:#ffa8a7"></path><path d="M90.9,107.54C80.27,108.7,75.81,118.07,78,129c1.57,7.76,4.64,18.47,7.12,26.29,0,0,12.94-.13,19.15-6.07-2.34-7.68-2.72-9.29-4.79-16.57C98.72,118.09,95.7,111,90.9,107.54Z" style="fill:#37474f"></path><path id="freepik--Hand--inject-237" d="M190.8,102.74c1.18-1,2.51-2,4-3.06,0,0,4.31.4,9.55,4.56,3.32,2.63,13.32,2.45,11.89-2.15-2-6.47-9-8.83-12.14-9.51C198.93,91.46,189.65,96,190.8,102.74Z" style="fill:#ffa8a7"></path></g></g></g></svg>