<svg xmlns="http://www.w3.org/2000/svg" viewBox="0 0 750 500"><g id="freepik--background-complete--inject-42"><path d="M318.31,360.89a29.64,29.64,0,0,0-12.69-4.37c-2.07-.21-4.34-.15-6,1.1a1.26,1.26,0,0,0-.62,1.1,1.35,1.35,0,0,0,.59.75,18.13,18.13,0,0,0,18.72,1.42" style="fill:#e0e0e0"></path><path d="M318,360.53a61.25,61.25,0,0,1-8.2-7.21,20.78,20.78,0,0,1-5.14-9.5,3.81,3.81,0,0,1,.41-3.18c6.53,5.1,11.66,11.7,12.93,19.89" style="fill:#e0e0e0"></path><path d="M318.24,360.84a29.7,29.7,0,0,1,.16-10.76,14.54,14.54,0,0,1,5.73-8.88c1.13,2.64.64,5.68-.15,8.44a40.87,40.87,0,0,1-5.69,12" style="fill:#e0e0e0"></path><path d="M324.65,372.32a18.75,18.75,0,0,0-10.18,5.15,19.27,19.27,0,0,0-5.82,10c3.82-.24,7.05-2.93,9.4-5.94s4-6.33,6.55-9.15" style="fill:#e0e0e0"></path><path d="M326,374.15a25.09,25.09,0,0,1,2.9-23.74c2.21,7.88,1.4,16.78-2.9,23.74" style="fill:#e0e0e0"></path><path d="M334.5,384.23a18.11,18.11,0,0,0-17.35,10,1,1,0,0,0,1,1.7c3.42-.23,6.45-2.28,8.95-4.63s4.68-5.05,7.45-7.07" style="fill:#e0e0e0"></path><path d="M334.23,383.68a32.35,32.35,0,0,1-.32-18.06c.64-2.32,1.7-4.77,3.85-5.86a.59.59,0,0,1,1,.33,10.8,10.8,0,0,1,.91,5.18,32.07,32.07,0,0,1-.81,5.24c-.68,3.21-1,6.65-2.79,9.42a17.82,17.82,0,0,0-1.12,2.06c-.33.71-.34.95-.64,1.51" style="fill:#e0e0e0"></path><path d="M356.63,387a23.26,23.26,0,0,1,4.08-19.14c.29-.39.68-.79,1.16-.75.73.07.92,1,.89,1.78A34.62,34.62,0,0,1,356.63,387" style="fill:#e0e0e0"></path><path d="M358.65,388.4a27.88,27.88,0,0,0,22.85-4.65,18.51,18.51,0,0,0-12.37-1.52c-4.13.95-7.91,2.8-10.48,6.17" style="fill:#e0e0e0"></path><path d="M360.35,384.19a26.43,26.43,0,0,1,20.74-12c-.95,3.34-3.69,5.93-6.78,7.5a37.55,37.55,0,0,1-10,2.91c-1.32.26-3.14.54-4,1.58" style="fill:#e0e0e0"></path><path d="M357.06,363.8a60.61,60.61,0,0,0,2.65-12.15,20.2,20.2,0,0,0-2.42-12c-4,7.77-4.42,16.84-.35,24.57" style="fill:#e0e0e0"></path><path d="M370.57,357c4.69-8.53,14.26-15.34,23.95-16.29-3.74,9.3-13.93,16.49-23.95,16.29" style="fill:#e0e0e0"></path><path d="M367.61,358.64c7,1.07,13,5.54,19.5,8.25a8.71,8.71,0,0,0,4.41.84,3.45,3.45,0,0,0,2.16-6.1,9.53,9.53,0,0,0-3.2-1.95c-7.12-3-14.76-3-22.26-1.24" style="fill:#e0e0e0"></path><path d="M363.57,363.55c1.58.45,2.12,1.27,3.38,2.34a36.41,36.41,0,0,0,14.78,7.6c.57.14,1.31.19,1.59-.32s-.07-1-.39-1.38a20.35,20.35,0,0,0-8.92-6.06c-3.42-1.27-6.37-2.8-10.44-2.47" style="fill:#e0e0e0"></path><path d="M359,333.91a28,28,0,0,0,21.45,7.3,1.52,1.52,0,0,0,1-.35c.54-.59-.11-1.5-.74-2-6.31-4.92-13.95-6.95-21.69-5" style="fill:#e0e0e0"></path><path d="M364.41,331.92a29.91,29.91,0,0,1,26.77-4.41,21.26,21.26,0,0,1-12.75,5.6,40.2,40.2,0,0,1-14-1.19" style="fill:#e0e0e0"></path><path d="M362.26,318.3c-.62-6.29-.22-11.26-.65-17.59,0-.5-.15-1.11-.62-1.29-.66-.26-1.21.55-1.42,1.23a20.16,20.16,0,0,0,2.68,17.52" style="fill:#e0e0e0"></path><path d="M361.81,319a37.15,37.15,0,0,0,10.43-10.14c2.06-2.81,3.79-6.19,3.32-9.65A10,10,0,0,0,368,303a20.84,20.84,0,0,0-3.83,7.71c-.84,2.77-1.42,5.62-2.4,8.34" style="fill:#e0e0e0"></path><path d="M372.05,316.15A84,84,0,0,0,397.72,301c-3.07-1.24-6.58-.5-9.64.74a30.39,30.39,0,0,0-16.16,14.32" style="fill:#e0e0e0"></path><path d="M364.69,322.44a51.92,51.92,0,0,0,14.25.07c4.62-.77,9-2.6,13.3-4.42a1.59,1.59,0,0,0,.91-.68,1,1,0,0,0-.33-1.14,2.74,2.74,0,0,0-1.13-.53c-4.7-1.32-9.76-.7-14.38.86a66.25,66.25,0,0,0-12.62,5.84" style="fill:#e0e0e0"></path><path d="M337.64,334.12a25.14,25.14,0,0,1-.23-20.86c2,3,2.2,6.81,1.84,10.37s-1.44,7.24-1.51,10.82" style="fill:#e0e0e0"></path><path d="M324.72,327.61a29.09,29.09,0,0,0-21.62,9.21,20.21,20.21,0,0,0,11.84-2.19,60.71,60.71,0,0,0,10.15-6.79" style="fill:#e0e0e0"></path><path d="M316,324.71c-4-.32-7.74-.81-11.54.35a13.83,13.83,0,0,0-8.8,7.46,20.84,20.84,0,0,0,10.82-2,62.36,62.36,0,0,0,9.52-5.77" style="fill:#e0e0e0"></path><path d="M328.9,324.84c-3.56-2.33-7.2-4.7-11.34-5.66s-8.93-.25-11.81,2.86c3.35,2,7.41,2.2,11.29,2.2s8.64-.05,12.3,1.25" style="fill:#e0e0e0"></path><path d="M328.92,325c-6.07-6-8.38-16.68-5.93-24.83A37.84,37.84,0,0,1,328.92,325" style="fill:#e0e0e0"></path><path d="M345.61,308.13c1.15-2.66,1.95-5.45,3-8.16a23.54,23.54,0,0,1,4.25-7.53,11.2,11.2,0,0,1,7.52-3.9,30.3,30.3,0,0,1-14.6,19.64" style="fill:#e0e0e0"></path><path d="M342.59,311.65c-1.89-2.6-4.08-6.14-6.65-8.09s-5.92-3.13-9.05-2.38a21.05,21.05,0,0,0,15.7,10.47" style="fill:#e0e0e0"></path><path d="M343.2,308.35a44.45,44.45,0,0,1-3-9.7,15.11,15.11,0,0,1,1.52-9.86c3.33,6.3,4.41,13.06,1.65,19.63" style="fill:#e0e0e0"></path><path d="M345.64,288.79c1.89-6.25,7.61-10.85,13.78-13a5.19,5.19,0,0,1,2.42-.36,2.1,2.1,0,0,1,1.78,1.49c.23,1.06-.65,2-1.48,2.72a46.89,46.89,0,0,1-16.5,9.11" style="fill:#e0e0e0"></path><path d="M345.71,283.68c.24-4,.49-8.11,1.8-11.93s3.84-7.39,7.51-9.06c.62,4.06-1.17,8.11-3.33,11.61s-4.78,6.8-6.08,10.71" style="fill:#e0e0e0"></path><path d="M345.61,286.45c-1.56-4.55-1.72-10.33-4.44-14.3-1.91-2.77-5-4.66-6.6-7.59a11.55,11.55,0,0,0,.38,8.62,25.19,25.19,0,0,0,5,7.22c2,2.15,3.75,3.77,5.62,6.05" style="fill:#e0e0e0"></path><path d="M345.64,420.5c-.12,0-.22-30.37-.23-67.82s.08-67.81.2-67.81.23,30.35.24,67.81S345.76,420.5,345.64,420.5Z" style="fill:#e0e0e0"></path><path d="M372.18,329.54A6.49,6.49,0,0,1,371,330L367.9,331c-2.65.9-6.29,2.21-10.24,3.83s-7.6,3-9.7,4.86A7.16,7.16,0,0,0,346,342.3c-.3.71-.36,1.14-.4,1.14a1,1,0,0,1,0-.32,4.15,4.15,0,0,1,.22-.89,6.86,6.86,0,0,1,1.9-2.74,17.08,17.08,0,0,1,4.21-2.62c1.68-.78,3.55-1.6,5.53-2.42,4-1.62,7.63-2.89,10.31-3.72,1.34-.41,2.43-.72,3.19-.92A6.56,6.56,0,0,1,372.18,329.54Z" style="fill:#e0e0e0"></path><path d="M380.88,308.18a1.83,1.83,0,0,1-.32.34l-1,.91c-.9.83-2.13,1.94-3.64,3.31l-12.1,10.78c-4.73,4.2-8.81,8.22-11.64,11.25-1.42,1.51-2.54,2.76-3.3,3.64-.35.4-.64.74-.88,1s-.31.35-.33.34a1.87,1.87,0,0,1,.26-.39c.19-.25.46-.61.82-1.06.72-.91,1.81-2.2,3.2-3.74a153.39,153.39,0,0,1,11.58-11.37c4.74-4.2,9.05-8,12.19-10.68l3.73-3.2,1-.86A1.86,1.86,0,0,1,380.88,308.18Z" style="fill:#e0e0e0"></path><path d="M358.74,327.8c-.13-.06.86-2.34,1.84-5.22s1.46-5.32,1.59-5.3a18.18,18.18,0,0,1-1.17,5.44,36.37,36.37,0,0,1-1.47,3.65A6,6,0,0,1,358.74,327.8Z" style="fill:#e0e0e0"></path><path d="M345.67,346.17a5.66,5.66,0,0,1-.73-.84c-.49-.64-1.12-1.44-1.86-2.39-1.57-2-3.74-4.83-6.16-7.89s-4.67-5.8-6.28-7.79c-.77-.94-1.4-1.73-1.91-2.36a5.38,5.38,0,0,1-.66-.9,5.05,5.05,0,0,1,.79.79c.49.53,1.17,1.3,2,2.27,1.68,1.94,4,4.66,6.39,7.72s4.56,5.89,6.07,8c.75,1,1.35,1.88,1.75,2.48A5.63,5.63,0,0,1,345.67,346.17Z" style="fill:#e0e0e0"></path><path d="M339.85,338.7a10.64,10.64,0,0,1-2.43-4.56,13.16,13.16,0,0,1-.56-4.6l.2,0c-.09.35-.15.53-.19.53s0-.2,0-.56h.2a20.57,20.57,0,0,0,.78,4.48A33.55,33.55,0,0,0,339.85,338.7Z" style="fill:#e0e0e0"></path><path d="M332.34,329.26a7.42,7.42,0,0,0-1.7-1,11.38,11.38,0,0,0-4.72-.38,28.84,28.84,0,0,0-4.76.77,14.3,14.3,0,0,1-2,.47,6.94,6.94,0,0,1,1.87-.77,21.57,21.57,0,0,1,4.81-.91,10.43,10.43,0,0,1,4.88.53A3,3,0,0,1,332.34,329.26Z" style="fill:#e0e0e0"></path><path d="M330.56,327c0,.06-1-.4-2.61-1a26.3,26.3,0,0,0-13.13-1c-1.69.31-2.7.62-2.73.55a2.65,2.65,0,0,1,.7-.3,15.74,15.74,0,0,1,2-.55,23.06,23.06,0,0,1,6.73-.47,23.34,23.34,0,0,1,6.58,1.49,14.73,14.73,0,0,1,1.86.84A2.33,2.33,0,0,1,330.56,327Z" style="fill:#e0e0e0"></path><path d="M345.61,317.28a54.72,54.72,0,0,1-1.9-6.6,53.29,53.29,0,0,1-1.47-6.72,58.34,58.34,0,0,1,1.9,6.61A53.36,53.36,0,0,1,345.61,317.28Z" style="fill:#e0e0e0"></path><path d="M345.73,317.28a31.59,31.59,0,0,0-2.1-3.95,17.08,17.08,0,0,0-3.11-3.2,2.74,2.74,0,0,1,1.2.61,9.6,9.6,0,0,1,2.27,2.34A8.7,8.7,0,0,1,345.73,317.28Z" style="fill:#e0e0e0"></path><path d="M345.64,404.31s-.13-.73-.48-2a28.31,28.31,0,0,0-2-5.26,73,73,0,0,0-10.77-15.16c-2.4-2.75-4.74-5.34-6.72-7.82a55.25,55.25,0,0,1-4.8-6.93,33,33,0,0,1-2.42-5.13c-.22-.64-.39-1.13-.48-1.47a2.22,2.22,0,0,1-.12-.53s.26.7.76,1.93a37.18,37.18,0,0,0,2.53,5.05A58.83,58.83,0,0,0,326,373.8c2,2.45,4.32,5,6.73,7.78a69.33,69.33,0,0,1,10.72,15.32,26.56,26.56,0,0,1,1.91,5.35,14.33,14.33,0,0,1,.27,1.52A2.2,2.2,0,0,1,345.64,404.31Z" style="fill:#e0e0e0"></path><path d="M369.62,377.23a10.7,10.7,0,0,1-1.26.7,28.35,28.35,0,0,0-3.25,2.16,37.9,37.9,0,0,0-4.29,3.9c-1.5,1.59-3.05,3.43-4.63,5.41-3.15,4-6.11,7.47-7.88,10.27a38.8,38.8,0,0,0-2,3.38,10,10,0,0,1-.7,1.26,1.48,1.48,0,0,1,.12-.36c.09-.22.22-.56.42-1a31.58,31.58,0,0,1,1.87-3.47,114,114,0,0,1,7.8-10.38c1.59-2,3.15-3.82,4.68-5.41a35.08,35.08,0,0,1,4.39-3.87,23.19,23.19,0,0,1,3.37-2.06,9.94,9.94,0,0,1,1-.43C369.49,377.26,369.62,377.21,369.62,377.23Z" style="fill:#e0e0e0"></path><path d="M370.09,386a16.9,16.9,0,0,1-2.66.39,34.46,34.46,0,0,0-6.29,1.24,18.82,18.82,0,0,0-5.65,3c-1.3,1-1.91,1.84-2,1.79a2.13,2.13,0,0,1,.39-.61,9.87,9.87,0,0,1,1.39-1.42,17.22,17.22,0,0,1,5.7-3.14,28.36,28.36,0,0,1,6.4-1.13A15.75,15.75,0,0,1,370.09,386Z" style="fill:#e0e0e0"></path><path d="M354.3,391.42c-.14-.08,1.06-1.9,2-4.36s1.08-4.66,1.24-4.64a4.54,4.54,0,0,1,0,1.43,15.16,15.16,0,0,1-.77,3.36,17,17,0,0,1-1.54,3.07A4.26,4.26,0,0,1,354.3,391.42Z" style="fill:#e0e0e0"></path><path d="M377.39,353.64a2.73,2.73,0,0,1-.43.23l-1.25.56c-.54.24-1.21.53-1.95.93s-1.63.78-2.54,1.33l-1.45.83c-.5.29-1,.63-1.53,1-1.07.65-2.14,1.45-3.28,2.26a56,56,0,0,0-12.63,13.07c-.78,1.17-1.54,2.27-2.15,3.36-.32.54-.64,1.05-.91,1.56l-.78,1.48c-.51.93-.88,1.82-1.24,2.58s-.65,1.43-.86,2-.39.93-.53,1.26a1.79,1.79,0,0,1-.21.44,2.15,2.15,0,0,1,.13-.47l.45-1.29a21.53,21.53,0,0,1,.79-2c.34-.77.69-1.68,1.2-2.62l.75-1.5c.27-.52.59-1,.89-1.58.61-1.11,1.36-2.22,2.13-3.41a58.87,58.87,0,0,1,5.81-7.12,58.23,58.23,0,0,1,6.92-6c1.16-.82,2.24-1.61,3.33-2.25.53-.32,1-.66,1.55-.95l1.47-.8c.93-.53,1.82-.91,2.58-1.28a20.33,20.33,0,0,1,2-.86l1.28-.5A2.55,2.55,0,0,1,377.39,353.64Z" style="fill:#e0e0e0"></path><path d="M358.41,366.35a3,3,0,0,1,1-1.55,6.56,6.56,0,0,1,4.21-1.61,11.38,11.38,0,0,1,4.42.86,6.57,6.57,0,0,1,1.68.81,9.21,9.21,0,0,1-1.78-.52,13.29,13.29,0,0,0-4.31-.71,6.76,6.76,0,0,0-4,1.41A14.24,14.24,0,0,0,358.41,366.35Z" style="fill:#e0e0e0"></path><path d="M355.57,369.28a16.08,16.08,0,0,0,1.2-3.88,15.65,15.65,0,0,0-.27-4.06,2.46,2.46,0,0,1,.49,1.13,7.83,7.83,0,0,1,.21,3,7.54,7.54,0,0,1-.89,2.84C355.94,369,355.62,369.31,355.57,369.28Z" style="fill:#e0e0e0"></path><path d="M324.67,408.66c.66,11.61,4.15,23.41,9.53,35.34h23.39c5.13-11.81,8.39-23.6,9-35.34Z" style="fill:#e0e0e0"></path><path d="M362.76,427.44c0,.12-7.7.22-17.19.22s-17.21-.1-17.21-.22,7.7-.22,17.21-.22S362.76,427.32,362.76,427.44Z" style="fill:#fafafa"></path><path d="M362.24,431.64c0,.12-7.22.22-16.12.22s-16.13-.1-16.13-.22,7.22-.22,16.13-.22S362.24,431.52,362.24,431.64Z" style="fill:#fafafa"></path><path d="M334.58,416.28a66.14,66.14,0,0,1,0,10.78,66.14,66.14,0,0,1,0-10.78Z" style="fill:#fafafa"></path><path d="M347.11,416.28a70.87,70.87,0,0,1,0,11.16,70.87,70.87,0,0,1,0-11.16Z" style="fill:#fafafa"></path><path d="M358.88,416.19a77.19,77.19,0,0,1,0,11.38,73.69,73.69,0,0,1,0-11.38Z" style="fill:#fafafa"></path><path d="M365.81,416.28c0,.12-9,.22-20.17.22s-20.17-.1-20.17-.22,9-.22,20.17-.22S365.81,416.16,365.81,416.28Z" style="fill:#fafafa"></path><rect x="435.95" y="320.37" width="38.76" height="10.25" style="fill:#ebebeb"></rect><path d="M457,341.09a1.23,1.23,0,0,1,0-.18v-.53c0-.48,0-1.15,0-2,0-1.77,0-4.31-.07-7.52l.12.12-38.75.08c.08-.09-.2.19.19-.2h0v10.23l-.2-.19,27.62.09L454,341l2.2,0H457s0,0-.18,0h-.55l-2.16,0-8.11.06-27.76.09h-.19V330.86h0l.2-.2,38.75.08h.12v.12c0,3.24-.05,5.81-.06,7.59,0,.86,0,1.52,0,2,0,.2,0,.37,0,.5S457,341.1,457,341.09Z" style="fill:#e0e0e0"></path><rect x="202.65" y="43.08" width="38.76" height="10.25" style="fill:#f5f5f5"></rect><rect x="629.68" y="68.76" width="38.76" height="10.25" style="fill:#f5f5f5"></rect><path d="M90.53,104.74a.86.86,0,0,1,0-.19V104q0-.72,0-2c0-1.77,0-4.32-.07-7.53l.12.12-38.75.08c.09-.09-.2.2.19-.2h0v10.24l-.19-.2,27.62.09,8.15.06,2.2,0h.58l.21,0h-.74l-2.16,0-8.11,0-27.75.09h-.2V94.5h0c.39-.39.11-.11.2-.19l38.75.07h.13v.12c0,3.24-.06,5.81-.07,7.6,0,.85,0,1.51,0,2,0,.21,0,.37,0,.5S90.53,104.74,90.53,104.74Z" style="fill:#e0e0e0"></path><path d="M595.66,225.38a1.7,1.7,0,0,1,0-.19c0-.14,0-.31,0-.53q0-.72,0-2c0-1.77,0-4.32-.07-7.53l.12.12-38.75.08c.08-.09-.2.2.19-.2h0v10.24l-.2-.2,27.62.09,8.16.06,2.2,0h.58l.2,0h-.73l-2.16,0-8.11,0-27.76.09h-.19V215.14h0c.39-.39.11-.11.2-.19l38.75.07h.12v.12c0,3.24,0,5.81-.06,7.6,0,.85,0,1.51,0,2,0,.21,0,.37,0,.5S595.67,225.38,595.66,225.38Z" style="fill:#e0e0e0"></path><path d="M512.87,58.47a1.7,1.7,0,0,1,0-.19c0-.13,0-.31,0-.52,0-.49,0-1.16,0-2,0-1.77,0-4.32-.07-7.52l.12.12-38.76.07c.09-.09-.2.2.2-.19h0v5.2c0,1.71,0,3.39,0,5l-.19-.19,27.62.08,8.15.06,2.21,0,.58,0h-.53l-2.16,0-8.11,0-27.76.09h-.19v-.19c0-1.65,0-3.33,0-5v-5.2h0l.2-.2,38.76.07H513v.12c0,3.23,0,5.8-.07,7.59,0,.85,0,1.51,0,2,0,.21,0,.37,0,.51A.92.92,0,0,1,512.87,58.47Z" style="fill:#e0e0e0"></path><path d="M533.34,413.8a.58.58,0,0,1,0-.19c0-.13,0-.31,0-.52,0-.49,0-1.16,0-2,0-1.77,0-4.32-.06-7.52l.12.12-38.76.07.2-.19h0v5.2c0,1.71,0,3.39,0,5l-.19-.19,27.62.08,8.15.06,2.21,0,.57,0h-.52l-2.17,0-8.11,0-27.75.09h-.19v-.19c0-1.65,0-3.33,0-5v-5.2h0l.2-.2,38.76.08h.12v.12c0,3.23-.05,5.8-.07,7.59,0,.85,0,1.52,0,2,0,.21,0,.37,0,.51A.92.92,0,0,1,533.34,413.8Z" style="fill:#e0e0e0"></path><rect x="537.1" y="335.72" width="38.76" height="10.25" style="fill:#ebebeb"></rect><path d="M558.17,356.44s0-.07,0-.19v-.52c0-.49,0-1.16,0-2,0-1.77,0-4.32-.07-7.52l.12.12-38.75.07.19-.19h0v10.24l-.2-.19,27.62.08,8.16.06,2.2,0,.58,0h-.53l-2.16,0-8.11.05-27.76.09h-.19V346.2h0l.2-.2,38.75.08h.12v.12c0,3.23,0,5.8-.06,7.59,0,.85,0,1.52,0,2,0,.21,0,.37,0,.51S558.18,356.44,558.17,356.44Z" style="fill:#e0e0e0"></path><rect x="679.19" y="148.73" width="38.76" height="10.25" style="fill:#ebebeb"></rect><path d="M700.27,169.45a1.7,1.7,0,0,1,0-.19c0-.13,0-.31,0-.52,0-.49,0-1.16,0-2,0-1.77,0-4.32-.07-7.52l.12.12-38.76.07c.09-.09-.2.2.2-.19h0v5.2c0,1.71,0,3.39,0,5l-.19-.19,27.62.08,8.15.06,2.21,0,.58,0h-.53l-2.17,0-8.1.05-27.76.09h-.19v-.19c0-1.65,0-3.33,0-5v-5.2h0l.2-.2,38.76.07h.12v.12c0,3.23,0,5.8-.07,7.59,0,.85,0,1.51,0,2,0,.21,0,.37,0,.51A.92.92,0,0,1,700.27,169.45Z" style="fill:#e0e0e0"></path><path d="M678.54,398a.63.63,0,0,1,0-.2c0-.15,0-.34,0-.57,0-.52,0-1.25,0-2.18,0-1.91,0-4.66-.07-8.13l.13.13-41.88.08.21-.21h0v5.61c0,1.85,0,3.67,0,5.45l-.21-.21,29.85.1,8.81.06,2.38,0,.63,0h0l-.59,0-2.34,0-8.76.06-30,.1h-.2V398c0-1.78,0-3.6,0-5.45V387h0c.43-.43.12-.12.22-.21l41.88.08h.13V387c0,3.5-.06,6.28-.07,8.21,0,.92,0,1.63,0,2.15,0,.22,0,.4,0,.54A1.23,1.23,0,0,1,678.54,398Z" style="fill:#e0e0e0"></path><path d="M684.22,387a1.07,1.07,0,0,1,0-.21c0-.16,0-.35,0-.59,0-.54,0-1.29,0-2.22,0-1.94,0-4.69-.09-8.06l.16.15-25.17.06c-.19.19.26-.26.22-.21h0V387l-.21-.2,18,.09,5.25.06,1.41,0,.51,0a2.17,2.17,0,0,1-.46,0l-1.37,0-5.2.06-18.14.09h-.2V387c0-1.72,0-3.52,0-5.37v-5.69h0c-.05,0,.4-.41.21-.21l25.17.06h.15v.15c0,3.41-.06,6.19-.08,8.15,0,.92,0,1.65,0,2.19A6.5,6.5,0,0,1,684.22,387Z" style="fill:#e0e0e0"></path><path d="M258.71,414s0-.07,0-.2,0-.34,0-.57c0-.52,0-1.25,0-2.18,0-1.91,0-4.66-.07-8.13l.12.13-41.88.08L217,403h0V414l-.21-.21,29.85.1,8.81.06,2.38,0,.62,0h.22s-.06,0-.19,0l-.6,0-2.33,0-8.77.06-30,.1h-.21V403h0c.42-.43.12-.12.21-.21l41.88.08h.14V403c0,3.5,0,6.28-.07,8.21,0,.92,0,1.63,0,2.15,0,.22,0,.4,0,.54S258.72,414,258.71,414Z" style="fill:#e0e0e0"></path><path d="M264.39,403s0-.08,0-.21,0-.35,0-.59c0-.54,0-1.28,0-2.22,0-1.94-.05-4.69-.08-8.06l.15.15-25.16.06.21-.21h0v5.69c0,1.85,0,3.65,0,5.37l-.2-.2,18,.09,5.24.06,1.42,0a2.83,2.83,0,0,1,.5,0,2.29,2.29,0,0,1-.45,0l-1.38,0-5.19.06-18.14.09H239v-8.39c0-.48,0-1,0-1.44V391.9h0c0,.05.41-.4.22-.21l25.16.06h.16v.15c0,3.41-.07,6.19-.09,8.15q0,1.38,0,2.19C264.41,402.72,264.4,403,264.39,403Z" style="fill:#e0e0e0"></path><path d="M579,132.7a.8.8,0,0,1,0-.2c0-.15,0-.33,0-.57,0-.52,0-1.24,0-2.18,0-1.91,0-4.66-.07-8.13l.13.13-41.88.09c.09-.1-.22.21.21-.22h0V132.7l-.21-.2,29.85.09,8.81.06,2.38,0H579s-.06,0-.2,0h-.59l-2.34,0-8.76.06-30,.09h-.21V121.64h0l.22-.21,41.88.08h.13v.13c0,3.5-.06,6.28-.07,8.21,0,.92,0,1.64,0,2.15,0,.23,0,.41,0,.55A.86.86,0,0,1,579,132.7Z" style="fill:#e0e0e0"></path><path d="M584.65,121.62a.85.85,0,0,1,0-.21c0-.16,0-.35,0-.58,0-.55,0-1.29,0-2.23,0-1.94-.05-4.68-.09-8.06l.16.16-25.17.06c-.19.19.26-.26.21-.22h0v5.69c0,1.85,0,3.65,0,5.37l-.2-.2,18,.1,5.25,0,1.41,0,.51,0a2.63,2.63,0,0,1-.46,0l-1.37,0-5.2.06-18.14.1h-.2v-.21c0-1.72,0-3.52,0-5.37v-5.69h0l.21-.21,25.17.06h.15v.15c0,3.42-.06,6.19-.08,8.16,0,.92,0,1.65,0,2.18A6.5,6.5,0,0,1,584.65,121.62Z" style="fill:#e0e0e0"></path><rect x="153.83" y="254.43" width="38.76" height="10.25" style="fill:#ebebeb"></rect><path d="M174.9,275.16s0-.07,0-.19v-.52c0-.49,0-1.16,0-2,0-1.77,0-4.32-.07-7.53l.12.12-38.75.08c.08-.09-.2.2.19-.2h0v10.24l-.2-.2,27.63.09,8.15.06,2.2,0,.58,0a.63.63,0,0,1,.2,0h-.73l-2.16,0-8.11.05-27.76.09H136V264.92h0c.39-.39.11-.11.2-.19l38.75.07H175v.12c0,3.24-.05,5.81-.06,7.6,0,.85,0,1.51,0,2v.5C174.91,275.11,174.91,275.16,174.9,275.16Z" style="fill:#e0e0e0"></path><path d="M75.18,391.47a1.57,1.57,0,0,1,0-.2l0-.57c0-.52,0-1.25,0-2.18,0-1.91,0-4.66-.07-8.13l.13.13-41.88.08.21-.21h0V386c0,1.85,0,3.67,0,5.45l-.2-.21,29.84.1,8.81.06,2.39,0,.62,0h.22l-.19,0h-.6l-2.34,0-8.76.06-30,.09h-.21v-.21c0-1.78,0-3.6,0-5.45v-5.61h0c.43-.43.12-.12.22-.21l41.88.08h.13v.13c0,3.5-.06,6.28-.07,8.21,0,.92,0,1.64,0,2.15l0,.55A.86.86,0,0,1,75.18,391.47Z" style="fill:#e0e0e0"></path><path d="M80.86,380.39a1,1,0,0,1,0-.21v-.59c0-.54,0-1.28,0-2.22,0-1.94-.05-4.69-.08-8.06l.15.15-25.16.06.21-.21h0v2.87c0,.95,0,1.89,0,2.82v5.37l-.21-.2,18,.09,5.24.06,1.41,0a3,3,0,0,1,.51,0,2.49,2.49,0,0,1-.46,0l-1.37,0-5.2.06-18.14.09h-.2v-.21c0-1.72,0-3.52,0-5.37v-5.69h0c0,.05.4-.4.22-.21l25.16.06H81v.15c0,3.41-.06,6.19-.08,8.15,0,.93,0,1.66,0,2.19A6.5,6.5,0,0,1,80.86,380.39Z" style="fill:#e0e0e0"></path><path d="M394.65,242.66a1.57,1.57,0,0,1,0-.2c0-.15,0-.34,0-.57,0-.52,0-1.25,0-2.18,0-1.91,0-4.66-.07-8.13l.13.13-41.88.08.21-.21h0v5.61c0,1.85,0,3.67,0,5.45l-.2-.21,29.84.1,8.81.06,2.39,0,.62,0h0l-.6,0-2.34,0-8.76.05-30,.1h-.21v-.21c0-1.78,0-3.6,0-5.45V231.6h0c.43-.43.12-.12.22-.21l41.88.08h.13v.13c0,3.5,0,6.28-.07,8.21,0,.92,0,1.64,0,2.15,0,.22,0,.4,0,.55A.86.86,0,0,1,394.65,242.66Z" style="fill:#e0e0e0"></path><path d="M400.33,231.58a1,1,0,0,1,0-.21c0-.16,0-.35,0-.59,0-.54,0-1.28,0-2.22,0-1.94-.05-4.69-.08-8.06l.15.15-25.16.06c-.2.19.25-.26.21-.21h0v2.87c0,1,0,1.89,0,2.82v5.37l-.21-.2,18,.09,5.24.06,1.41,0a3,3,0,0,1,.51,0,2.49,2.49,0,0,1-.46,0l-1.37,0-5.2.06-18.14.09H375v-.2c0-1.72,0-3.52,0-5.37v-5.69h0l.22-.21,25.16.06h.15v.15c0,3.41-.06,6.19-.08,8.15,0,.93,0,1.65,0,2.19A6.5,6.5,0,0,1,400.33,231.58Z" style="fill:#e0e0e0"></path><rect x="285.63" y="94.75" width="38.76" height="10.25" style="fill:#ebebeb"></rect><path d="M313.57,115.47a.58.58,0,0,1,0-.19l0-.52c0-.48,0-1.16,0-2,0-1.77,0-4.31-.06-7.52l.12.12-38.76.07c.09-.08-.2.2.2-.19h0v2.6c0,.87,0,1.73,0,2.59v5l-.19-.19,27.62.09,8.15,0,2.21,0h.78s-.06,0-.18,0l-.56,0-2.16,0-8.11.06-27.75.08h-.2V105.24h0l.2-.2,38.76.08h.12v.12c0,3.24-.05,5.81-.07,7.59,0,.85,0,1.52,0,2,0,.21,0,.38,0,.51A.79.79,0,0,1,313.57,115.47Z" style="fill:#e0e0e0"></path><rect x="134.08" y="72.77" width="87.88" height="122.35" style="fill:#fff"></rect><path d="M222,195.12s0-.2,0-.59,0-1,0-1.72c0-1.52,0-3.76,0-6.67,0-5.83,0-14.35,0-25.12,0-21.54-.05-52.1-.09-88.25L222,73l-87.87,0h0l.21-.21c0,45.79,0,88.15,0,122.35l-.17-.17L198,195l17.72,0,4.65,0,1.61,0-1.57,0-4.63,0-17.68,0-64,.09h-.16v-.17c0-34.2,0-76.56,0-122.35v-.2h.21l87.87,0h.19v.18c0,36.2-.07,66.8-.1,88.37,0,10.76,0,19.26-.05,25.08,0,2.89,0,5.12,0,6.63,0,.75,0,1.31,0,1.7S222,195.12,222,195.12Z" style="fill:#e0e0e0"></path><rect x="142.94" y="137.46" width="68.47" height="4.41" style="fill:#f5f5f5"></rect><rect x="158.68" y="135.79" width="38.57" height="7.97" style="fill:#f5f5f5"></rect><path d="M171.9,102.28c3.93,0,5.74,2.38,5.74,6.28V121.3c0,3.87-1.81,6.25-5.74,6.25H166V102.28Zm0,22.7c2,0,3-1.26,3-3.57v-13c0-2.31-1-3.57-3-3.57h-3V125Z" style="fill:#e0e0e0"></path><path d="M180.06,108.38c0-3.86,1.91-6.35,5.77-6.35s5.81,2.49,5.81,6.35v13.07c0,3.82-1.91,6.35-5.81,6.35s-5.77-2.53-5.77-6.35Zm2.78,13.21c0,2.31,1,3.65,3,3.65s3-1.34,3-3.65V108.24c0-2.28-.94-3.65-3-3.65s-3,1.37-3,3.65Z" style="fill:#e0e0e0"></path><path d="M173.68,150.42V178h-3.07V150.42Z" style="fill:#e0e0e0"></path><path d="M180.85,178V153.21h-5.08v-2.79H189v2.79h-5.07V178Z" style="fill:#e0e0e0"></path><polygon points="145.22 104.37 148.56 116.41 151.49 113.08 156.38 121.39 153.14 107.1 150.11 110.53 145.22 104.37" style="fill:#f5f5f5"></polygon><polygon points="210.65 103.16 207.32 115.2 204.38 111.87 199.5 120.18 202.74 105.89 205.76 109.32 210.65 103.16" style="fill:#f5f5f5"></polygon><polygon points="177.55 78.72 173.21 93.09 178.33 91.59 177.96 103.16 183.84 86.57 178.57 88.11 177.55 78.72" style="fill:#ebebeb"></polygon><polygon points="196.81 124.49 196.01 124.49 196.01 92.07 161.04 92.07 161.04 124.49 160.25 124.49 160.25 91.28 196.81 91.28 196.81 124.49" style="fill:#ebebeb"></polygon><polygon points="196.81 183.03 160.25 183.03 160.25 149.82 161.04 149.82 161.04 182.24 196.01 182.24 196.01 149.82 196.81 149.82 196.81 183.03" style="fill:#ebebeb"></polygon><rect x="150.8" y="124.49" width="7.88" height="30.3" rx="2.63" style="fill:#ebebeb"></rect><rect x="197.26" y="124.49" width="7.88" height="30.3" rx="2.63" style="fill:#ebebeb"></rect><rect x="147.56" y="135.03" width="3.25" height="8.44" style="fill:#ebebeb"></rect><rect x="205.07" y="135.03" width="3.25" height="8.44" style="fill:#ebebeb"></rect><rect x="126.93" y="74.5" width="24.58" height="4.42" transform="translate(-17.92 100.65) rotate(-37.52)" style="fill:#f5f5f5"></rect><rect x="203.94" y="189.66" width="24.58" height="4.42" transform="translate(-72.13 171.36) rotate(-37.51)" style="fill:#f5f5f5"></rect></g><g id="freepik--speech-bubble--inject-42"><path d="M431.32,123.62l-2.3-8.24a27.49,27.49,0,1,0-6.47,7.44h0Z" style="fill:#fff"></path><path d="M431.32,123.62l-.59-.07-1.69-.18-6.49-.66.09.2h0a.14.14,0,0,0,0-.18.13.13,0,0,0-.16,0,27.48,27.48,0,0,1-12.21,5.49,27.58,27.58,0,0,1-18.05-3,27.18,27.18,0,0,1-7.41-41.51l1.11-1.25,1.22-1.14a29.93,29.93,0,0,1,2.56-2.09,27.05,27.05,0,0,1,29.25-1.37,27.35,27.35,0,0,1,10,37.51l0,.1c.77,2.63,1.36,4.66,1.78,6.06.2.68.35,1.2.47,1.59s.17.55.17.55a4.4,4.4,0,0,0-.12-.51c-.1-.38-.23-.9-.41-1.57l-1.64-6.19,0,.1a27.45,27.45,0,0,0,3.91-13A27.78,27.78,0,0,0,407.8,73.7a28.11,28.11,0,0,0-18.45,5,29.7,29.7,0,0,0-2.62,2.13L385.48,82l-1.13,1.28A27.71,27.71,0,0,0,392,125.61a27.49,27.49,0,0,0,30.66-2.69l-.18-.17h0a.14.14,0,0,0,0,.18l.07,0,6.59.51,1.66.12Z" style="fill:#263238"></path><polygon points="404.97 114.66 390.44 105.12 393.77 100.05 403.51 106.44 415.43 90.39 420.3 94 404.97 114.66" style="fill:#FF725E"></polygon></g></svg>
